<svg xmlns="http://www.w3.org/2000/svg" viewBox="0 0 800 600"><defs><linearGradient id="light" x1="0" y1="1" x2="1" y2="0"><stop stop-color="#8ed9f6"/><stop offset=".5" stop-color="#b797ed"/><stop offset="1" stop-color="#ffc18e"/></linearGradient><radialGradient id="halo"><stop stop-color="#b797ed" stop-opacity=".3"/><stop offset="1" stop-color="#071a42" stop-opacity="0"/></radialGradient><filter id="glow"><feGaussianBlur stdDeviation="5"/></filter></defs><path fill="#0a193b" d="M0 0h800v600H0z"/><ellipse cx="490" cy="220" rx="360" ry="300" fill="url(#halo)"/><g fill="none" stroke="url(#light)" stroke-width="2"><ellipse cx="450" cy="250" rx="50" ry="27.500000000000004" transform="rotate(-25 450 250)" opacity="0.8611111111111112"/><ellipse cx="450" cy="250" rx="74" ry="40.7" transform="rotate(-25 450 250)" opacity="0.7944444444444445"/><ellipse cx="450" cy="250" rx="98" ry="53.900000000000006" transform="rotate(-25 450 250)" opacity="0.7277777777777779"/><ellipse cx="450" cy="250" rx="122" ry="67.10000000000001" transform="rotate(-25 450 250)" opacity="0.6611111111111111"/><ellipse cx="450" cy="250" rx="146" ry="80.30000000000001" transform="rotate(-25 450 250)" opacity="0.5944444444444444"/><ellipse cx="450" cy="250" rx="170" ry="93.50000000000001" transform="rotate(-25 450 250)" opacity="0.5277777777777778"/><ellipse cx="450" cy="250" rx="194" ry="106.7" transform="rotate(-25 450 250)" opacity="0.46111111111111114"/><ellipse cx="450" cy="250" rx="218" ry="119.9" transform="rotate(-25 450 250)" opacity="0.3944444444444445"/><ellipse cx="450" cy="250" rx="242" ry="133.10000000000002" transform="rotate(-25 450 250)" opacity="0.3277777777777777"/><ellipse cx="450" cy="250" rx="266" ry="146.3" transform="rotate(-25 450 250)" opacity="0.26111111111111107"/><ellipse cx="450" cy="250" rx="290" ry="159.5" transform="rotate(-25 450 250)" opacity="0.19444444444444442"/><ellipse cx="450" cy="250" rx="314" ry="172.70000000000002" transform="rotate(-25 450 250)" opacity="0.12777777777777777"/><ellipse cx="450" cy="250" rx="338" ry="185.9" transform="rotate(-25 450 250)" opacity="0.061111111111111116"/><path d="M170 370L620 100" stroke-width="3"/><circle cx="450" cy="200" r="9" fill="#ffc18e"/></g></svg>